<svg width="24" height="24" viewBox="0 0 24 24" fill="none" xmlns="http://www.w3.org/2000/svg">
<path d="M6 17.5V19a1 1 0 0 0 1 1h1.5a1 1 0 0 0 1-1v-1m5 0V19a1 1 0 0 0 1 1H16a1 1 0 0 0 1-1v-1.5" stroke="#1B1B1B" stroke-width="2" stroke-linecap="round" stroke-linejoin="round"/>
<path d="M5 6h14a1 1 0 0 1 1 1v9a2 2 0 0 1-2 2H6a2 2 0 0 1-2-2V7a1 1 0 0 1 1-1Z" stroke="#1B1B1B" stroke-width="2" stroke-linecap="round" stroke-linejoin="round"/>
<path d="M4 11h16M8 14.25h.01M16 14.25h.01" stroke="#1B1B1B" stroke-width="2" stroke-linecap="round" stroke-linejoin="round"/>
</svg>
