<svg width="32" height="32" viewBox="0 0 32 32" fill="none" xmlns="http://www.w3.org/2000/svg">
<path d="M9.33325 8.26693V23.7336C9.33325 25.2271 9.33325 25.9734 9.6239 26.5438C9.87956 27.0456 10.2872 27.454 10.789 27.7096C11.3589 28 12.1052 28 13.5958 28H18.404C19.8946 28 20.6399 28 21.2098 27.7096C21.7115 27.454 22.1206 27.0456 22.3762 26.5438C22.6666 25.974 22.6666 25.2287 22.6666 23.7381V8.26255C22.6666 6.77199 22.6666 6.0256 22.3762 5.45573C22.1206 4.95396 21.7115 4.54631 21.2098 4.29065C20.6393 4 19.8937 4 18.4002 4H13.6002C12.1067 4 11.3594 4 10.789 4.29065C10.2872 4.54631 9.87956 4.95396 9.6239 5.45573C9.33325 6.02616 9.33325 6.77345 9.33325 8.26693Z" stroke="#1B1B1B" stroke-width="2" stroke-linecap="round" stroke-linejoin="round"/>
</svg>
